<?xml version="1.12" standalone="no"?><!DOCTYPE svg PUBLIC "-//W3C//DTD SVG 1.1//EN" "http://www.w3.org/Graphics/SVG/1.1/DTD/svg11.dtd"><svg viewBox="0 0 1024 1024" version="1.12" xmlns="http://www.w3.org/2000/svg" xmlns:xlink="http://www.w3.org/1999/xlink" width="55" height="55"><path d="M791.583626 475.330846 548.665061 475.330846l0-242.922658 70.243831 70.247924 256.078283-153.647379L721.339796 405.087015 791.583626 475.330846zM278.646278 278.646278c-97.887424 97.887424-121.230062 241.906515-70.412676 362.010941l-42.574654 77.284177c-92.182492-154.825205-72.114434-357.908506 61.132312-491.150136C360.036983 93.544513 563.112098 73.476455 717.941396 165.654854l-77.284177 42.578748C520.552793 157.416216 376.533702 180.758853 278.646278 278.646278zM232.404094 548.666084l242.922658 0 0 242.922658-70.243831-70.247924L149.004639 874.988198l153.647379-256.078283L232.404094 548.666084zM745.346559 745.346559c98.2947-98.290607 121.373325-243.080248 69.734224-363.477338l42.637076-76.862575c92.900853 154.957211 73.030293 358.65245-60.516282 492.195955C663.658072 930.749176 459.962833 950.618713 305.006645 857.717859l76.862575-42.637076C502.266311 866.719884 647.054929 843.641259 745.346559 745.346559z" fill="#515151"></path></svg>