<svg width="200" height="200" class="icon" data-spm-anchor-id="a313x.7781069.0.i7" viewBox="0 0 1024 1024"><path fill="#fff" d="M766.494 268.549H255.582c-37.062 0-67.347 30.285-67.347 67.346v352.126c0 37.061 30.285 67.346 67.347 67.346h510.912c37.062 0 67.347-30.285 67.347-67.346V335.895c0-37.061-30.37-67.346-67.347-67.346zm25.265 419.388c0 6.693-2.677 12.968-7.445 17.82-4.769 4.768-11.127 7.446-17.82 7.446H255.582c-6.693 0-12.968-2.678-17.82-7.446-4.769-4.769-7.446-11.127-7.446-17.82V335.895c0-6.692 2.677-12.967 7.446-17.82 4.769-4.768 11.127-7.445 17.82-7.445h510.912c6.693 0 12.967 2.677 17.82 7.446 4.768 4.768 7.445 11.127 7.445 17.82v352.041zm0 0" class="selected" data-spm-anchor-id="a313x.7781069.0.i10"/><path fill="#fff" d="M296.073 496.607v-21.083c0-3.68 1.255-6.776 3.765-9.286s5.521-3.765 8.868-3.765c3.68 0 6.776 1.255 9.286 3.765s3.765 5.605 3.765 9.286v21.5l18.572-10.959c2.26-1.422 4.35-2.091 6.359-2.091 2.258 0 4.35.585 6.358 1.673a12.152 12.152 0 0 1 4.601 4.601c1.088 2.008 1.673 4.183 1.673 6.777 0 5.354-2.091 9.035-6.358 10.96l-18.154 10.959 18.572 10.541a12.152 12.152 0 0 1 4.602 4.601c1.087 2.008 1.673 4.1 1.673 6.358 0 2.008-.586 3.932-1.673 5.94-1.088 2.26-2.677 3.932-4.602 5.104-2.007 1.087-4.099 1.673-6.358 1.673-2.259 0-4.35-.586-6.358-1.673l-18.99-10.542v21.501c0 3.346-1.256 6.358-3.766 8.868s-5.605 3.765-9.286 3.765c-3.346 0-6.358-1.255-8.868-3.765s-3.764-5.522-3.764-8.868v-21.166l-18.155 10.541c-2.259 1.088-4.183 1.673-5.94 1.673-5.103 0-9.035-2.258-11.796-6.776a12.886 12.886 0 0 1-1.673-6.358c0-5.103 2.092-8.7 6.358-10.96l18.573-10.54-18.573-10.542c-2.008-1.088-3.43-2.677-4.434-4.601-1.004-1.925-1.506-4.1-1.506-6.359 0-2.51.586-4.768 1.674-6.776 2.258-4.183 5.94-6.358 10.96-6.358 2.258 0 4.35.585 6.357 1.673l18.238 10.709zm134.191 0v-21.083c0-3.68 1.255-6.776 3.765-9.286s5.521-3.765 8.868-3.765c3.68 0 6.776 1.255 9.286 3.765s3.765 5.605 3.765 9.286v21.5l18.572-10.959c2.26-1.422 4.35-2.091 6.358-2.091 2.26 0 4.35.585 6.359 1.673a12.152 12.152 0 0 1 4.6 4.601c1.088 2.008 1.674 4.183 1.674 6.777 0 5.354-2.091 9.035-6.358 10.96l-18.154 10.959 18.572 10.541a12.152 12.152 0 0 1 4.602 4.601c1.087 2.008 1.673 4.1 1.673 6.358 0 2.008-.586 3.932-1.673 5.94-1.088 2.26-2.678 3.932-4.602 5.104-2.008 1.087-4.1 1.673-6.358 1.673-2.259 0-4.35-.586-6.358-1.673l-18.99-10.542v21.501c0 3.346-1.256 6.358-3.766 8.868s-5.605 3.765-9.286 3.765c-3.346 0-6.358-1.255-8.868-3.765s-3.765-5.522-3.765-8.868v-21.166l-18.154 10.541c-2.259 1.088-4.183 1.673-5.94 1.673-5.103 0-9.035-2.258-11.796-6.776a12.886 12.886 0 0 1-1.673-6.358c0-5.103 2.091-8.7 6.358-10.96l18.573-10.54-18.49-10.458c-2.007-1.088-3.43-2.678-4.433-4.602-1.004-1.924-1.506-4.099-1.506-6.358 0-2.51.586-4.768 1.673-6.776 2.259-4.183 5.94-6.359 10.96-6.359 2.258 0 4.35.586 6.358 1.674l18.154 10.625zm134.19 0v-21.083c0-3.68 1.256-6.776 3.766-9.286s5.521-3.765 8.868-3.765c3.68 0 6.776 1.255 9.286 3.765s3.765 5.605 3.765 9.286v21.5l18.572-10.959c2.259-1.422 4.35-2.091 6.358-2.091 2.26 0 4.35.585 6.358 1.673a12.152 12.152 0 0 1 4.602 4.601c1.087 2.008 1.673 4.183 1.673 6.777 0 5.354-2.092 9.035-6.358 10.96l-18.154 10.959 18.572 10.541a12.152 12.152 0 0 1 4.601 4.601c1.088 2.008 1.674 4.1 1.674 6.358 0 2.008-.586 3.932-1.674 5.94-1.087 2.26-2.677 3.932-4.6 5.104-2.009 1.087-4.1 1.673-6.36 1.673-2.258 0-4.35-.586-6.357-1.673l-18.991-10.542v21.501c0 3.346-1.255 6.358-3.765 8.868s-5.605 3.765-9.286 3.765c-3.346 0-6.358-1.255-8.868-3.765s-3.765-5.522-3.765-8.868v-21.166l-18.07 10.541c-2.26 1.088-4.183 1.673-5.94 1.673-5.103 0-9.036-2.258-11.796-6.776a12.886 12.886 0 0 1-1.673-6.358c0-5.103 2.091-8.7 6.358-10.96l18.572-10.54-18.572-10.542c-2.008-1.088-3.43-2.677-4.434-4.601-1.004-1.925-1.506-4.1-1.506-6.359 0-2.51.585-4.768 1.673-6.776 2.259-4.183 5.94-6.358 10.96-6.358 2.258 0 4.35.585 6.358 1.673l18.154 10.709zm134.192 0v-21.083c0-3.68 1.255-6.776 3.764-9.286s5.522-3.765 8.868-3.765c3.681 0 6.777 1.255 9.287 3.765s3.764 5.605 3.764 9.286v21.5l18.573-10.959c2.259-1.422 4.35-2.091 6.358-2.091 2.259 0 4.35.585 6.358 1.673a12.152 12.152 0 0 1 4.602 4.601c1.087 2.008 1.673 4.183 1.673 6.777 0 5.354-2.092 9.035-6.358 10.96l-18.155 10.959 18.573 10.541a12.152 12.152 0 0 1 4.601 4.601c1.088 2.008 1.673 4.1 1.673 6.358 0 2.008-.585 3.932-1.673 5.94-1.087 2.26-2.677 3.932-4.601 5.104-2.008 1.087-4.1 1.673-6.358 1.673-2.26 0-4.35-.586-6.358-1.673l-18.991-10.542v21.501c0 3.346-1.255 6.358-3.765 8.868s-5.605 3.765-9.286 3.765c-3.347 0-6.358-1.255-8.868-3.765s-3.765-5.522-3.765-8.868v-21.166l-18.154 10.541c-2.259 1.088-4.183 1.673-5.94 1.673-5.103 0-9.035-2.258-11.796-6.776a12.886 12.886 0 0 1-1.673-6.358c0-5.103 2.091-8.7 6.358-10.96l18.572-10.54-18.572-10.542c-2.008-1.088-3.43-2.677-4.434-4.601-1.004-1.925-1.506-4.1-1.506-6.359 0-2.51.586-4.768 1.673-6.776 2.259-4.183 5.94-6.358 10.96-6.358 2.258 0 4.35.585 6.358 1.673l18.238 10.709z" class="selected" data-spm-anchor-id="a313x.7781069.0.i8"/></svg>