<svg width="200" height="200" class="icon" viewBox="0 0 1024 1024"><path fill="#fff" d="M512.9 110c-92 0-167.8 64.7-232.5 142.9h465C680.6 174.7 604.8 110 512.9 110zm-111.6 92.9c38.4-29 74.9-42.9 111.5-42.9s73.2 13.9 111.5 42.9h-223zM958 565.5v-50h-87.8c-6.9-62.4-29.2-127.6-62.7-186.6l81.7-81.7-35.4-35.4-73.7 73.7c-2.1-3-4.2-6-6.4-8.9H251.9c-2.4 3.3-4.8 6.6-7.1 9.9L170 211.7l-35.4 35.4 82.8 82.8c-33.1 58.8-55.2 123.6-62.1 185.5H66v50h87.4c1.5 69.8 19.1 135.5 52.4 190.7l-86 86 35.4 35.4 80.1-80.1c60 71.1 152.8 116.6 277.6 116.6 126.2 0 218.4-44.7 277.8-114.7l78.2 78.2 35.4-35.4-84.1-84.1c33.4-55.6 50.7-122 52.2-192.6H958zM280.7 773.4c-25-27.2-44.4-59.9-57.6-97.1-13.2-37.2-19.9-77.9-19.9-120.9 0-72.9 27.7-156.9 74.8-228.8h209.8v536.7c-41.1-2.3-78.9-10.5-112.5-24.3-36.7-15.3-68.6-37.3-94.6-65.6zm522.5-96.7c-12.9 37.3-31.9 69.9-56.5 96.9-25.7 28.2-57.4 50.2-94.2 65.3-34 13.9-72.4 22.1-114.6 24.4V326.6h209.8c47.2 71.9 74.8 155.9 74.8 228.8 0 43.4-6.5 84.2-19.3 121.3z"/></svg>