<svg width="200" height="200" class="icon" data-spm-anchor-id="a313x.7781069.0.i1" viewBox="0 0 1024 1024"><path fill="#fff" d="M36.409 691.2V361.244c2.275 0 3.982-.568 5.689-.568H163.84c17.636 0 34.702 2.275 50.631 9.67 29.013 13.085 44.373 36.978 47.218 67.698 2.844 31.858-10.809 56.32-38.116 73.387-1.706 1.138-2.844 1.707-5.12 3.413 2.845 1.138 5.69 2.276 7.965 3.414 32.995 13.084 52.906 42.666 51.2 77.938-.57 11.946-2.845 23.893-6.827 35.27-10.809 31.29-34.702 48.925-66.56 55.183-8.533 1.707-17.067 2.844-25.6 3.982-47.218.569-94.435.569-142.222.569zm42.667-39.253c2.275 0 3.413.569 4.55.569h81.352c8.533 0 17.066-.57 25.03-2.276 27.308-5.12 43.805-25.031 44.374-52.907.57-27.875-14.79-48.355-42.098-54.613-10.24-2.276-20.48-3.413-31.288-3.413-25.6-.57-51.2 0-76.8 0-1.707 0-3.983.569-5.69.569.57 37.546.57 74.524.57 112.07zm.568-152.463c1.138 0 1.707.57 2.276.57 17.067 0 33.564.568 50.631 0 15.929-.57 31.858-.57 47.787-2.276 23.893-2.845 38.684-18.205 40.96-42.667 2.275-26.738-11.947-47.787-36.978-52.907a70.613 70.613 0 0 0-15.36-1.706c-27.876-.57-56.32-.57-84.196-1.138-1.706 0-3.413.569-5.12.569v99.555zM443.734 691.2V399.929H338.488v-38.685h252.587v38.116H486.4c0 2.844-.569 4.551-.569 6.258v281.03c0 1.708 0 3.414.569 4.552h-42.667zm403.91 0c0-2.276-.568-4.551-.568-6.827V559.218c6.826 0 13.084-.57 19.342 0 1.706 0 3.982 2.844 5.689 4.55 23.893 30.152 48.355 60.872 72.249 91.023 1.706 1.707 3.413 3.982 5.688 6.827v-102.4h19.343V690.63H947.2c-.569-1.138-1.138-2.844-2.276-3.982-25.03-31.289-50.062-63.147-74.524-94.436-1.138-1.137-1.138-2.844-2.276-3.982l-1.706 1.707V691.2h-18.774zm-106.95 0c-6.827-1.138-13.654-1.707-19.912-3.413-28.444-6.258-46.649-29.583-48.355-59.734-2.276-41.529 24.462-68.835 68.835-71.11 17.067-.57 32.996 1.706 47.787 11.946 8.533 6.258 15.36 14.222 18.773 25.6-6.258 1.138-11.378 2.275-17.066 3.413-1.138 0-3.983-1.138-3.983-2.275-9.67-25.031-38.684-26.738-59.164-21.618-21.049 5.689-32.427 21.618-33.565 47.218 0 5.12 0 10.809 1.138 15.929 6.827 35.84 52.338 52.337 80.782 28.444 6.258-5.689 10.24-13.653 15.93-22.187 4.55 1.138 11.377 2.276 18.204 3.983-5.12 16.497-14.222 29.013-29.582 35.27-9.672 3.983-21.05 5.69-31.29 8.534h-8.533zm-190.578 0v-40.96h42.666v40.96h-42.666zm183.75-246.329v-20.48h-59.733v-11.947H808.96v11.947h-59.733v20.48h54.044v12.516h-54.044v32.426h67.697v12.516H666.738v-11.947h66.56v-32.995h-53.476V444.87h54.045zm225.28 64.853c0-2.275-.568-4.55-.568-7.395h-53.476c-.569 2.275-.569 4.551-1.138 7.395H891.45V455.68h80.213v54.044h-12.515zm-54.044-20.48h53.476v-21.048h-53.476v21.048zM671.29 381.724h65.991c-2.844-5.12-5.689-9.67-8.533-14.79 3.982-1.707 7.964-3.983 12.515-6.258 3.982 6.826 8.534 13.084 13.085 21.048h56.889v26.738H798.15v-13.084H684.942c0 4.55-.569 8.533-.569 13.084H671.29v-26.738zm194.56 32.427v50.062c6.258-1.137 11.947-2.275 18.773-3.413v12.516c-16.498 3.413-32.995 7.395-50.63 10.808-1.139-4.55-1.708-8.533-2.845-13.653 5.689-1.138 10.809-1.707 16.497-3.413 1.707-.57 4.552-3.414 4.552-5.12.568-15.93 0-31.29 0-47.787h-18.774v-12.515h18.205V363.52h13.653v38.116h19.342v12.515H865.85zm83.627-36.978V364.09h13.084v13.653h20.48v12.516h-19.911v13.084h-13.085c0-3.982-.568-7.964-.568-13.084h-34.134c-.569 3.982-.569 8.533-1.138 13.084H901.69c0-3.982-.569-8.533-.569-13.084h-20.48v-12.516h20.48V363.52h13.084c0 4.551.57 8.533.57 13.084 10.808.57 22.186.57 34.702.57z" class="selected" data-spm-anchor-id="a313x.7781069.0.i0"/><path fill="#fff" d="M905.102 433.493c-6.826 3.983-13.653 7.396-20.48 11.947-2.844-3.982-5.689-7.396-9.102-11.378 6.258-3.413 11.947-5.689 17.067-9.67 10.24-7.965 20.48-16.499 29.582-25.6 5.12-5.12 10.809-2.276 14.791-3.414 13.084 17.635 30.72 27.306 50.062 36.409-2.844 4.55-5.12 8.533-7.964 12.515-7.396-3.982-13.654-7.395-20.48-10.809-9.102-7.964-18.205-15.36-26.738-22.755-9.102 7.395-17.636 15.36-26.738 22.755z" class="selected" data-spm-anchor-id="a313x.7781069.0.i2"/><path fill="#fff" d="M958.578 433.493c0 3.983.569 7.396.569 11.947h-54.045v-11.947h53.476zM765.156 466.49c3.413-2.845 6.257-5.12 10.24-7.965 6.826 6.827 13.084 13.654 19.91 21.05-3.982 3.413-7.395 5.688-11.377 8.533-6.258-6.827-11.947-14.223-18.773-21.618z" class="selected" data-spm-anchor-id="a313x.7781069.0.i3"/></svg>