<svg width="200" height="200" viewBox="0 0 1024 1024"><path fill="#9da5b4" d="M791.584 475.33H548.665V232.409l70.244 70.248L874.987 149.01 721.34 405.087l70.244 70.244zM278.646 278.647c-97.887 97.888-121.23 241.907-70.412 362.011l-42.575 77.284c-92.183-154.825-72.114-357.908 61.132-491.15 133.246-133.246 336.321-153.315 491.15-61.136l-77.284 42.579c-120.104-50.818-264.123-27.475-362.01 70.412zm-46.242 270.02h242.923V791.59l-70.244-70.248-256.078 153.647L302.652 618.91l-70.248-70.244zm512.943 196.68c98.294-98.29 121.373-243.08 69.734-363.477l42.637-76.862c92.9 154.957 73.03 358.652-60.516 492.196-133.544 133.546-337.24 153.416-492.195 60.515l76.862-42.637c120.397 51.639 265.186 28.56 363.478-69.734z"/></svg>