<svg width="200" height="200" class="icon" viewBox="0 0 1024 1024"><defs/><path fill="#fff" d="M512 0L392.533 119.467h85.334v298.666L512 452.267l38.4-38.4V119.467H631.467L512 0zm55.467 136.533v264.534L738.133 230.4l-89.6-89.6c0-4.267-81.066-4.267-81.066-4.267zm106.666 0l85.334 85.334 4.266 4.266-4.266 4.267-192 196.267V460.8H601.6l192-192 4.267-4.267 4.266 4.267 85.334 85.333V140.8c0-4.267-213.334-4.267-213.334-4.267zm-537.6 0V345.6l81.067-81.067 4.267-4.266 4.266 4.266 192 192h34.134v-29.866l-187.734-192-4.266-8.534 4.266-4.266L345.6 140.8l-209.067-4.267zm238.934 0l-89.6 89.6L460.8 401.067V136.533h-85.333zm422.4 149.334L627.2 456.533h260.267v-81.066l-89.6-89.6zm-571.734 0l-89.6 89.6V460.8H396.8L226.133 285.867zM119.467 392.533L0 512l119.467 119.467v-85.334h298.666L452.267 512l-38.4-38.4H119.467v-8.533-72.534zm785.066 0V473.6H605.867L571.733 512l34.134 34.133h298.666v85.334L1024 512 904.533 392.533zm-768 170.667v85.333l89.6 89.6L401.067 563.2H136.533zm290.134 0l-192 192-4.267 4.267-4.267-4.267-81.066-81.067V883.2h209.066l-81.066-81.067-4.267-4.266 4.267-4.267 192-192v-34.133l-38.4-4.267zm140.8 0v38.4l192 192 4.266 4.267-4.266 4.266L678.4 883.2h213.333V674.133L806.4 759.467l-4.267 4.266-4.266-4.266L597.333 563.2h-29.866zm55.466 0l174.934 174.933 89.6-89.6V563.2H622.933zM512 571.733l-34.133 34.134v298.666H388.267L512 1024l119.467-119.467h-85.334V610.133c4.267 0-34.133-38.4-34.133-38.4zm-51.2 51.2L285.867 797.867 371.2 883.2h85.333V622.933h4.267zm106.667 4.267v260.267H652.8l85.333-85.334L567.467 627.2z"/></svg>