<svg width="200" height="200" class="icon" viewBox="0 0 1024 1024"><defs/><path fill="#fff" d="M401.63 970.006C208.108 920.494 56.163 737.752 50.949 536.802 41.133 348.21 159.289 163.48 332.078 88.971c76.525-39.482 165.828-37.48 249.483-32.002 120.506 9.25 227.583 80.602 301.194 173.626 96.159 114.389 128.09 277.616 81.025 419.584-49.249 176.665-213.105 309.47-393.83 330.783-56.113 7.11-113.656 3.78-168.32-10.956zm200.348-36.996c152.03-33.347 283.01-151.663 324.722-302.658 39.396-132.603 5.452-282.012-81.075-388.79-39.542-21.572-88.61-1.893-131.558-.259-72.527 13.086-153.68 31.79-201.169 92.84-14.371 45.813-39.851 86.637-62.893 127.701 33.509 33.501 55.436-41.819 69.895-66.002 17.156-34.005 17.41-111.444 68.677-96.37 1.929 54.826-6.92 112.078-30.255 162.022-18.437 32.497-59.04 98.847-101.614 61.592-40.137-50.403-21.819-122.967 5.496-175.188 53.385-87.22 134.047-152.276 204.367-225.207 8.904-13.511-38.828-15.79-49.619-22.498-46.474-10.287-94.036-13.463-141.247-18.577-51.4 94.273-86.92 198.206-96.003 305.519-.804 67.536 18.28 144.959 77.836 183.836 44.707 19.32 95.283-1.923 119.53-42.626 46.087-58.002 42.412-135.432 45.525-205.202-4.227-44.43 29.601-22.277 27.937 7.51 10.706 85.208 16.454 182.028-37.18 254.98-59.383 74.305-175.456 66.729-248.088 16.757C264.056 530.458 221.713 407.4 184.26 294.255c-5.98-8.214-8.323-48.175-17.664-27.066C87.313 383.295 73.91 537.474 118.28 669.355c5.783 14.074 3.658 36.778 24.709 34.192 140.055 30.567 293.226 50.207 427.828-11.184 76.466-34.478 136.87-111.04 133.988-197.546 2.912-68.445-25.615-131.543-51.371-193.204 48.34 43.7 93.658 94.035 111.44 158.4 37.1 113.257 3.57 243.183-79.518 327.808-56.784 65.654-133.923 106.795-210.234 145.161-24.348 21.74 51.64 8.796 71.265 8.383 18.635-1.994 37.23-4.559 55.591-8.355z"/></svg>