<svg width="200" height="200" class="icon" viewBox="0 0 1024 1024"><defs/><path fill="#fff" d="M511.9 64.8c-246.8 0-447 200-447.2 447V858c.2 56 45.6 101.4 101.6 101.4h345.8c247 0 447-200.2 447-447.2.2-247.2-200.2-447.4-447.2-447.4zm171.4 207.8c-14.2 0-19.2-2.8-40-2.8-61.2 0-110.6 49.6-110.8 110.6v96.2c0 8.6 7 15.6 15.6 15.6h72.8c64.8 0 65.2 97.8-.6 97.8h-88v111.2c0 116-94 210-210 210-17.6 0-30-2-46.4-6.2-63-16.6-53.4-95.6 6.4-95.6 14.2 0 19.2 2.8 40 2.8 61.2 0 110.6-49.6 110.8-110.6v-96.2c0-8.6-7-15.6-15.6-15.6h-72.8c-64.8 0-65.2-97.8.6-97.8h88V380.8c0-116 94-210 210-210 17.6 0 30 2 46.4 6.2 63 16.6 53.4 95.6-6.4 95.6z"/></svg>