<svg width="200" height="200" class="icon" viewBox="0 0 1024 1024"><path fill="#CACACA" d="M19.2 512c0 272.17 220.63 492.8 492.8 492.8s492.8-220.63 492.8-492.8S784.17 19.2 512 19.2 19.2 239.83 19.2 512z" class="selected" data-spm-anchor-id="a313x.7781069.0.i1"/><path fill="#5E5E5E" d="M145.707 512a366.293 366.293 0 1 0 732.586 0 366.293 366.293 0 1 0-732.586 0z"/><path fill="#8D8D8D" d="M868.395 427.179H514.859v149.76h193.92a207.104 207.104 0 0 1-403.926-64.811A207.232 207.232 0 0 1 639.36 348.629l117.504-109.098a366.336 366.336 0 1 0 111.53 187.648z"/><path fill="#CACACA" d="M478.25 233.045a33.75 33.75 0 0 0 67.542 0 33.75 33.75 0 0 0-67.541 0zM281.985 313.9a33.75 33.75 0 0 0 67.541 0 33.75 33.75 0 0 0-67.541 0zM200.363 512a33.75 33.75 0 0 0 67.541 0 33.75 33.75 0 0 0-67.541 0zm81.621 197.547a33.75 33.75 0 0 0 67.541 0 33.75 33.75 0 0 0-67.541 0zm196.267 82.176a33.75 33.75 0 0 0 67.541 0 33.75 33.75 0 0 0-67.541 0zm197.973-82.176a33.75 33.75 0 0 0 67.541 0 33.75 33.75 0 0 0-67.541 0zM759.168 512a33.75 33.75 0 0 0 67.541 0 33.75 33.75 0 0 0-67.541 0z"/></svg>