<svg width="200" height="200" class="icon" viewBox="0 0 1024 1024"><path fill="#fff" d="M768 341.333h-42.667V256c0-119.467-93.866-213.333-213.333-213.333S298.667 136.533 298.667 256v85.333H256c-46.933 0-85.333 38.4-85.333 85.334v426.666c0 46.934 38.4 85.334 85.333 85.334h512c46.933 0 85.333-38.4 85.333-85.334V426.667c0-46.934-38.4-85.334-85.333-85.334zm-256 384c-46.933 0-85.333-38.4-85.333-85.333s38.4-85.333 85.333-85.333 85.333 38.4 85.333 85.333-38.4 85.333-85.333 85.333zm132.267-384H379.733V256c0-72.533 59.734-132.267 132.267-132.267 72.533 0 132.267 59.734 132.267 132.267v85.333z"/></svg>