<svg width="200" height="200" class="icon" viewBox="0 0 1024 1024"><path fill="#fff" d="M512 160c-159.616 0-160 64-160 64v128h192v32H224s-96-14.72-96 160 96 160 96 160h96v-52a140.256 140.256 0 0 1 140-140h104c59.52 0 108-16.512 108-76V224s-.384-64-160-64zm-96 64c17.6 0 32 14.4 32 32s-14.4 32-32 32-32-14.4-32-32 14.4-32 32-32zm288 128v84c0 77.12-62.88 108-140 108H460a108.16 108.16 0 0 0-108 108v180s2.016 64 160 64c158.016 0 160-64 160-64V704H480v-32h320s96 16.128 96-160-96-160-96-160zm-96 416c17.6 0 32 14.4 32 32s-14.4 32-32 32-32-14.4-32-32 14.4-32 32-32z"/></svg>