<svg width="200" height="200" class="icon" viewBox="0 0 1024 1024"><defs/><path fill="#fff" d="M512 0c282.56 0 512 229.44 512 512s-229.44 512-512 512S0 794.56 0 512 229.44 0 512 0zm139.904 754.304a68.352 68.352 0 1 0 68.48 118.4 68.352 68.352 0 0 0-68.48-118.4zM512 711.68c-30.08 0-58.56-6.72-84.096-18.56l-47.488 85.12a296.576 296.576 0 0 0 210.944 19.84A95.872 95.872 0 0 1 720 723.712a296 296 0 0 0 88.32-192.64l-97.472-1.408A199.68 199.68 0 0 1 512 711.68zM312.32 512c0-67.52 33.6-127.232 84.928-163.392l-49.92-83.712a297.216 297.216 0 0 0-122.88 172.16c21.568 17.28 35.392 44.16 35.392 74.24s-13.824 56.32-35.392 74.24c18.56 71.04 62.976 132.48 122.88 172.16l49.92-83.84A195.84 195.84 0 0 1 312.32 512zm-148.48-68.352a68.352 68.352 0 1 0 0 136.704 68.352 68.352 0 0 0 0-136.704zM512 312.32a199.68 199.68 0 0 1 198.848 181.952l97.472-1.472A296.768 296.768 0 0 0 720 300.16a95.744 95.744 0 0 1-128.64-74.432A303.36 303.36 0 0 0 512 215.04c-47.36 0-91.968 11.072-131.584 30.72l47.488 85.12c25.6-11.904 54.08-18.56 84.096-18.56zm139.904-42.688a68.48 68.48 0 0 0 93.44-24.96 68.48 68.48 0 0 0-118.528-68.352c-18.816 32.64-7.68 74.432 25.088 93.312z"/></svg>